<?xml version="1.0" standalone="no"?>
<!DOCTYPE svg PUBLIC "-//W3C//DTD SVG 20010904//EN"
 "http://www.w3.org/TR/2001/REC-SVG-20010904/DTD/svg10.dtd">
<svg version="1.0" xmlns="http://www.w3.org/2000/svg"
 width="2317.000000pt" height="2240.000000pt" viewBox="0 0 2317.000000 2240.000000"
 preserveAspectRatio="xMidYMid meet">

<g transform="translate(0.000000,2240.000000) scale(0.100000,-0.100000)"
fill="#000000" stroke="none">
<path d="M5180 19191 c0 -37 27 -70 92 -111 38 -25 75 -52 82 -61 6 -9 26 -24
44 -33 18 -9 79 -48 134 -87 56 -38 105 -69 109 -69 5 0 39 -23 76 -51 37 -28
113 -80 168 -116 55 -36 119 -78 142 -94 23 -16 46 -29 51 -29 5 0 16 -7 23
-16 7 -9 49 -40 94 -69 78 -53 302 -205 555 -380 69 -47 168 -115 220 -151 52
-35 106 -76 119 -91 13 -15 40 -35 60 -44 34 -15 71 -39 341 -226 58 -39 146
-100 195 -134 50 -34 117 -81 149 -103 32 -23 73 -49 89 -59 17 -10 49 -33 71
-51 23 -19 81 -60 130 -92 106 -70 167 -113 221 -153 22 -17 56 -39 76 -50 19
-11 41 -27 49 -36 8 -9 31 -25 52 -36 21 -11 38 -23 38 -28 0 -5 15 -16 33
-24 18 -9 41 -25 52 -37 10 -11 24 -20 32 -20 8 0 30 -16 50 -35 20 -19 40
-35 44 -35 14 0 139 -91 139 -101 0 -12 -4 -11 -35 3 -14 6 -25 15 -25 20 0 5
-17 16 -37 24 -20 9 -45 27 -55 40 -11 13 -26 24 -35 24 -8 0 -31 14 -50 30
-18 17 -39 30 -45 30 -5 0 -25 12 -43 28 -18 15 -56 41 -85 57 -28 17 -64 39
-78 51 -15 12 -41 28 -57 37 -17 8 -39 24 -49 36 -11 12 -25 21 -33 21 -8 0
-24 10 -37 23 -12 12 -39 30 -59 39 -20 10 -37 22 -37 27 0 5 -16 15 -35 21
-20 7 -43 23 -52 36 -8 13 -23 24 -33 24 -10 0 -29 9 -42 20 -31 27 -144 100
-153 100 -4 0 -15 8 -24 18 -9 11 -53 41 -98 67 -46 26 -83 52 -83 57 0 5 -15
15 -34 23 -19 8 -37 19 -41 24 -3 6 -46 33 -96 62 -50 29 -93 58 -96 65 -5 14
-133 94 -151 94 -6 0 -17 8 -24 19 -7 10 -22 21 -33 25 -11 3 -42 26 -70 51
-27 25 -55 45 -62 45 -8 0 -16 7 -20 15 -3 9 -21 22 -41 31 -19 8 -42 23 -49
34 -8 11 -19 20 -24 20 -10 0 -149 87 -159 100 -3 3 -22 16 -42 29 -21 12 -38
26 -38 31 0 4 -15 14 -32 21 -18 7 -61 35 -95 61 -34 26 -66 48 -71 48 -11 0
-195 118 -236 152 -16 12 -47 30 -69 39 -21 8 -37 19 -35 25 1 5 -11 16 -28
24 -16 8 -58 38 -92 65 -71 58 -149 109 -180 119 -12 4 -22 13 -22 20 0 6 -20
22 -45 34 -25 12 -45 26 -45 30 0 5 -12 15 -27 23 -27 13 -55 33 -126 91 -18
15 -46 30 -61 34 -15 3 -30 13 -33 20 -3 7 -24 24 -48 38 -23 14 -45 32 -48
40 -3 8 -24 24 -46 35 -22 12 -46 30 -54 41 -7 11 -25 21 -38 22 -23 3 -24 1
-29 -82 -3 -47 -11 -95 -18 -107 -10 -18 -12 -131 -11 -474 0 -247 -2 -453 -6
-457 -4 -4 -16 5 -27 21 -11 15 -26 27 -35 27 -12 0 -14 -13 -8 -77 3 -43 10
-161 15 -263 17 -331 40 -631 55 -715 22 -127 29 -239 54 -915 6 -151 18 -459
27 -685 9 -225 19 -512 21 -637 5 -249 9 -264 60 -210 l26 27 -5 -75 c-5 -76
-20 -113 -77 -190 -11 -14 -120 -178 -243 -365 -467 -707 -916 -1385 -955
-1440 -29 -42 -200 -305 -259 -398 -27 -43 -73 -110 -102 -148 -29 -38 -100
-138 -159 -222 -99 -141 -249 -328 -296 -370 -16 -14 -30 -16 -63 -11 -54 8
-66 -12 -39 -62 37 -68 231 -258 410 -399 28 -22 101 -85 164 -140 62 -55 143
-124 180 -154 36 -29 98 -82 136 -116 39 -34 104 -90 145 -124 90 -74 233
-197 310 -267 30 -27 80 -68 110 -91 30 -22 87 -69 125 -105 39 -36 93 -85
121 -109 28 -24 111 -98 185 -164 74 -66 172 -152 219 -190 47 -38 121 -101
165 -141 44 -40 106 -92 137 -116 54 -41 174 -143 474 -404 73 -62 156 -133
185 -155 65 -51 234 -202 306 -275 29 -29 74 -70 100 -91 27 -21 98 -81 158
-133 61 -53 128 -109 150 -125 22 -16 78 -64 125 -105 47 -42 108 -94 135
-115 28 -22 100 -83 160 -135 61 -53 146 -125 190 -160 44 -35 125 -103 180
-150 55 -47 118 -99 140 -115 22 -16 81 -66 130 -110 50 -45 110 -96 135 -114
25 -18 97 -78 160 -135 115 -102 227 -196 300 -250 35 -26 43 -28 65 -18 39
18 48 55 30 118 -14 48 -162 350 -200 408 -25 38 -82 216 -90 281 -4 33 -13
89 -21 125 -8 36 -17 81 -21 100 -5 30 -110 318 -148 405 -19 43 -46 111 -106
265 -28 74 -74 189 -102 254 -27 66 -57 142 -67 170 -10 29 -29 78 -44 109
-14 32 -26 60 -26 63 0 7 -42 116 -85 219 -53 127 -65 170 -75 273 -18 175
-26 216 -57 292 -40 96 -139 315 -280 620 -45 95 -94 224 -143 370 -43 130
-49 153 -59 228 -8 51 -7 54 20 68 47 24 66 17 151 -59 46 -40 101 -86 123
-102 22 -16 117 -97 210 -180 94 -83 181 -159 194 -168 13 -8 91 -76 173 -149
82 -72 176 -153 208 -178 32 -25 99 -79 149 -120 143 -119 253 -207 302 -240
53 -37 270 -181 354 -236 33 -21 130 -109 215 -195 85 -86 180 -175 210 -198
168 -126 202 -151 280 -201 114 -72 154 -92 173 -84 22 8 70 111 108 229 12
39 33 102 47 140 13 39 30 88 37 110 6 22 14 47 18 55 12 32 100 275 109 304
6 17 14 85 18 151 8 125 12 138 111 352 10 24 19 45 19 49 0 3 14 38 31 77 85
197 70 154 254 722 48 149 111 342 139 430 29 88 59 180 66 205 8 25 17 50 20
55 4 6 12 30 19 55 7 25 23 70 36 100 26 63 40 99 126 335 59 164 106 291 133
365 14 36 101 260 116 295 5 11 20 54 35 95 36 102 65 181 75 205 10 24 40
104 92 250 63 177 101 334 99 410 -1 17 -5 208 -11 425 -5 217 -14 425 -20
463 -5 37 -10 235 -10 441 0 213 -4 385 -10 402 -16 50 -33 271 -37 503 -4
194 -2 230 13 272 15 41 16 56 6 99 -7 28 -12 112 -12 186 0 117 -2 135 -17
141 -12 5 -28 -7 -57 -40 -45 -50 -57 -54 -246 -77 -52 -6 -122 -15 -155 -20
-56 -8 -95 -13 -320 -40 -49 -6 -119 -15 -155 -20 -36 -5 -110 -14 -165 -20
-145 -16 -339 -40 -485 -60 -36 -5 -105 -14 -155 -20 -49 -6 -144 -17 -210
-26 -307 -39 -330 -40 -382 -18 -50 20 -71 54 -35 54 11 0 25 6 31 14 10 11 7
19 -11 36 -37 35 -216 161 -556 390 -135 91 -371 251 -411 279 -13 9 -35 25
-50 37 -14 11 -78 55 -141 96 -63 42 -194 131 -290 198 -96 67 -220 151 -275
188 -55 36 -102 68 -105 71 -3 3 -13 11 -22 16 -21 13 -130 87 -143 97 -19 16
-341 235 -415 283 -41 26 -77 51 -80 55 -3 4 -54 40 -115 81 -60 40 -111 77
-113 81 -2 5 -8 8 -14 8 -12 0 -111 70 -116 82 -2 5 -7 8 -12 8 -4 0 -54 32
-111 70 -57 39 -153 104 -214 144 -297 199 -407 274 -437 299 -11 9 -24 17
-28 17 -3 0 -15 8 -26 18 -10 10 -66 49 -124 86 -58 38 -107 72 -110 76 -9 11
-77 60 -83 60 -4 0 -7 -4 -7 -9z m1 -1327 c9 -39 10 -210 3 -256 -4 -21 -10
-38 -15 -38 -5 0 -20 18 -34 40 -23 37 -25 48 -21 116 5 84 32 177 49 171 7
-2 15 -17 18 -33z m22 -462 c0 -122 -8 -138 -39 -86 -26 43 -30 91 -11 144 32
92 50 72 50 -58z m15 -232 c-2 -28 -7 -50 -13 -50 -17 0 -28 50 -16 76 18 41
32 28 29 -26z m22 -159 c0 -17 -4 -33 -10 -36 -11 -7 -25 39 -15 54 12 21 25
11 25 -18z m20 -172 c0 -45 -2 -50 -15 -39 -15 13 -20 47 -9 74 12 32 24 15
24 -35z m26 -226 c2 -43 0 -116 -4 -162 -7 -83 -7 -84 -26 -66 -16 17 -18 32
-14 154 3 75 8 144 13 154 14 34 28 0 31 -80z m3710 -97 c10 -8 16 -17 12 -21
-11 -11 -48 5 -48 21 0 18 11 18 36 0z m79 -56 c10 -11 16 -23 12 -26 -8 -8
-44 13 -51 31 -8 22 18 19 39 -5z m-3775 -465 c0 -231 -6 -287 -24 -239 -3 9
-6 116 -6 239 0 123 3 230 6 239 18 48 24 -8 24 -239z m20 -647 c0 -154 -3
-239 -10 -232 -10 10 -16 446 -5 463 3 6 8 11 11 11 2 0 4 -109 4 -242z m18
-615 l-2 -208 -6 195 c-5 182 -4 220 6 220 2 0 3 -93 2 -207z"/>
<path d="M18125 19133 c-15 -32 -29 -71 -32 -86 -3 -16 -13 -31 -22 -34 -9 -3
-29 -16 -46 -28 -16 -11 -50 -31 -75 -44 -43 -22 -125 -72 -182 -112 -15 -11
-31 -19 -35 -19 -4 0 -19 -12 -32 -25 -13 -14 -28 -25 -34 -25 -6 0 -18 -6
-26 -14 -9 -8 -27 -21 -41 -28 -25 -13 -83 -50 -215 -137 -38 -26 -81 -52 -95
-59 -14 -7 -45 -26 -70 -42 -25 -16 -72 -45 -106 -65 -33 -19 -69 -44 -80 -56
-10 -11 -33 -27 -51 -34 -17 -7 -56 -31 -85 -53 -29 -21 -87 -58 -128 -82 -41
-23 -84 -50 -95 -60 -11 -9 -42 -29 -70 -45 -27 -15 -94 -58 -148 -94 -53 -36
-110 -73 -125 -81 -68 -38 -132 -77 -187 -115 -34 -22 -93 -60 -133 -85 -40
-25 -121 -76 -182 -115 -60 -38 -137 -88 -172 -109 -35 -21 -101 -64 -148 -94
-185 -120 -217 -140 -270 -172 -30 -19 -93 -58 -140 -88 -47 -31 -107 -70
-135 -87 -27 -18 -88 -57 -135 -87 -47 -30 -110 -69 -140 -88 -62 -38 -177
-111 -233 -149 -20 -14 -66 -44 -102 -66 -35 -22 -126 -79 -201 -127 -130 -83
-139 -87 -208 -93 -51 -4 -128 1 -271 20 -110 14 -236 30 -280 35 -74 9 -129
16 -310 41 -38 5 -106 13 -150 19 -44 6 -114 15 -155 20 -186 25 -345 40 -714
64 -120 8 -225 12 -232 9 -11 -4 -14 -45 -13 -199 l0 -195 30 -30 c16 -16 29
-31 29 -34 0 -19 -22 -55 -34 -55 -8 0 -18 -10 -22 -22 -6 -19 -8 -17 -20 18
-8 21 -15 67 -15 102 0 35 -9 88 -20 119 -21 62 -24 99 -9 108 6 3 10 29 10
57 l0 51 -21 -27 c-29 -37 -30 -70 -30 -753 -1 -471 2 -606 12 -625 10 -18 15
-187 20 -748 4 -399 12 -750 17 -780 25 -140 33 -172 67 -280 20 -63 40 -126
45 -140 10 -33 87 -223 110 -276 11 -22 25 -58 33 -80 21 -55 75 -192 94 -234
24 -55 30 -70 58 -150 15 -41 35 -97 45 -125 10 -27 104 -311 210 -630 223
-674 231 -697 340 -961 117 -284 120 -295 141 -439 17 -123 24 -143 114 -365
178 -433 237 -584 265 -676 44 -142 75 -281 86 -379 7 -73 25 -102 70 -121 30
-13 38 -12 62 0 16 8 41 33 56 54 29 43 295 285 383 349 28 21 93 70 145 108
51 39 104 78 118 88 14 9 52 37 85 62 33 24 74 52 90 61 87 49 173 113 243
182 210 208 274 263 387 337 66 44 135 92 153 107 19 16 50 39 70 52 20 13
104 84 186 157 81 74 171 150 198 171 28 20 85 67 127 105 42 38 90 78 106 88
17 11 57 42 90 71 33 28 67 54 75 57 17 7 74 43 112 70 54 38 77 -6 60 -112
-16 -97 -32 -210 -32 -221 0 -19 19 -10 25 13 16 55 41 107 50 103 11 -4 10
-15 -11 -106 -28 -121 -47 -168 -214 -545 -166 -376 -269 -641 -312 -800 -10
-37 -26 -97 -47 -170 -5 -16 -19 -68 -31 -115 -12 -47 -33 -121 -47 -165 -14
-44 -36 -116 -48 -160 -48 -173 -115 -365 -165 -475 -28 -63 -62 -142 -75
-175 -13 -33 -46 -112 -75 -175 -46 -102 -105 -247 -230 -560 -21 -52 -50
-124 -64 -159 -14 -35 -37 -101 -51 -145 -40 -131 -95 -208 -87 -122 6 63 -14
45 -43 -37 -15 -45 -31 -86 -35 -92 -16 -22 -40 -113 -34 -128 15 -39 62 -7
244 169 50 48 110 96 244 197 115 85 176 133 288 227 50 41 100 82 112 90 27
18 126 101 182 153 39 36 133 110 264 210 30 22 83 65 117 94 33 29 65 53 70
53 4 0 44 32 88 71 44 39 91 78 105 87 14 9 51 39 84 66 32 28 80 66 107 86
66 49 136 104 227 179 42 35 88 71 102 80 14 8 90 67 168 131 79 63 158 125
175 137 33 22 131 108 438 383 101 91 200 177 219 190 19 14 58 43 85 65 90
73 158 118 265 173 100 52 204 131 345 263 28 25 86 79 130 118 44 39 131 117
193 174 62 56 127 112 145 125 44 32 269 231 437 386 133 123 310 279 337 297
15 10 44 33 64 51 20 18 84 75 143 127 82 73 109 104 118 133 24 80 -34 187
-222 412 -70 85 -136 167 -147 182 -10 16 -81 119 -158 229 -77 110 -148 211
-157 225 -10 14 -37 53 -60 86 -24 34 -78 113 -121 175 -43 63 -106 155 -140
204 -35 50 -88 125 -118 169 -98 142 -123 178 -274 395 -83 117 -170 243 -195
280 -25 36 -106 153 -180 260 -177 254 -235 338 -266 384 -14 21 -66 95 -116
165 -102 142 -143 216 -131 235 4 6 11 37 15 67 4 30 11 78 17 105 28 144 42
256 52 400 15 233 27 410 39 580 6 83 15 211 20 285 5 74 14 198 20 275 16
207 31 439 40 620 23 441 31 621 40 845 9 255 19 402 47 680 39 391 50 782 23
834 -24 47 -37 42 -65 -21z m-6185 -3147 c6 -8 10 -25 8 -38 -3 -26 -41 -37
-64 -18 -14 13 -19 51 -7 63 12 12 50 7 63 -7z m78 -250 c4 -19 -13 -36 -35
-36 -14 0 -27 36 -18 50 11 17 49 7 53 -14z m4522 -7524 c0 -11 -22 -32 -32
-32 -5 0 -4 9 2 20 11 20 30 28 30 12z m-650 -532 c0 -5 -5 -10 -11 -10 -5 0
-7 5 -4 10 3 6 8 10 11 10 2 0 4 -4 4 -10z m-378 -272 c-7 -7 -12 -8 -12 -2 0
14 12 26 19 19 2 -3 -1 -11 -7 -17z"/>
<path d="M5083 18250 c0 -25 2 -35 4 -22 2 12 2 32 0 45 -2 12 -4 2 -4 -23z"/>
<path d="M11587 9758 c-6 -87 -46 -253 -111 -458 -13 -41 -29 -95 -36 -120 -7
-25 -16 -55 -21 -67 -4 -12 -20 -70 -34 -128 -14 -58 -33 -121 -40 -140 -8
-19 -28 -85 -44 -147 -36 -136 -63 -231 -102 -358 -16 -52 -47 -162 -70 -245
-22 -82 -55 -199 -74 -260 -18 -60 -40 -135 -49 -165 -8 -30 -34 -120 -57
-200 -23 -80 -53 -185 -66 -235 -14 -49 -29 -103 -34 -120 -4 -16 -18 -66 -29
-109 -12 -44 -25 -87 -30 -97 -9 -16 -38 -118 -90 -314 -16 -60 -40 -146 -55
-190 -14 -44 -39 -132 -56 -195 -17 -63 -33 -118 -36 -122 -2 -5 -17 -56 -33
-116 -15 -59 -35 -129 -45 -157 -9 -27 -21 -68 -27 -90 -6 -22 -15 -53 -19
-70 -5 -16 -38 -133 -74 -260 -36 -126 -74 -259 -85 -295 -10 -36 -22 -78 -25
-95 -4 -16 -19 -70 -35 -120 -15 -49 -33 -110 -40 -135 -26 -89 -52 -165 -60
-174 -4 -4 -11 2 -15 13 l-7 22 -17 -23 c-27 -35 -33 -62 -42 -203 -12 -171
-23 -729 -15 -761 4 -14 28 -44 53 -67 26 -23 109 -99 185 -169 131 -122 140
-128 180 -128 82 0 308 82 327 119 29 54 -11 220 -165 679 -25 73 -46 149 -47
170 l-2 37 310 7 c171 3 396 11 500 17 221 12 639 14 1117 4 l336 -6 11 -24
c6 -13 11 -57 11 -97 0 -40 3 -76 7 -79 3 -4 16 -1 29 7 28 19 36 11 28 -33
-10 -52 -32 -100 -114 -246 -40 -72 -94 -177 -120 -235 -26 -58 -52 -105 -56
-105 -5 0 -9 12 -10 28 -1 15 -4 30 -7 34 -10 9 -47 -28 -47 -47 0 -9 -4 -20
-9 -25 -5 -6 -13 -27 -16 -47 -6 -32 -3 -41 18 -60 14 -13 38 -30 54 -38 15
-8 59 -32 96 -54 51 -28 73 -36 87 -30 10 5 102 101 205 214 204 224 227 259
251 390 16 89 18 326 4 419 -28 186 -61 330 -100 436 -29 80 -80 227 -91 265
-6 19 -26 76 -44 125 -35 93 -59 193 -76 305 -21 144 -56 325 -75 390 -22 72
-90 286 -204 640 -51 157 -97 301 -102 320 -6 19 -14 43 -19 52 -5 10 -9 27
-9 37 0 11 -4 23 -10 26 -5 3 -10 14 -10 23 0 9 -27 99 -60 201 -32 103 -91
287 -130 411 -39 124 -79 250 -89 280 -10 30 -28 87 -39 125 -12 39 -33 106
-47 150 -31 101 -55 188 -65 240 -5 22 -20 87 -34 145 -14 58 -32 134 -41 170
-88 377 -135 566 -181 730 -14 47 -29 103 -35 125 -29 104 -119 346 -137 368
-29 34 -39 20 -45 -65z m-1500 -5440 c-3 -8 -6 -5 -6 6 -1 11 2 17 5 13 3 -3
4 -12 1 -19z"/>
<path d="M11524 9723 c-4 -16 -10 -32 -14 -38 -4 -5 -10 -26 -13 -45 -3 -19
-10 -53 -16 -75 -5 -22 -15 -60 -21 -84 -6 -26 -7 -48 -2 -53 9 -9 30 55 37
108 2 12 8 31 14 42 6 11 11 32 11 46 0 14 4 27 9 30 9 6 14 96 5 96 -2 0 -7
-12 -10 -27z"/>
<path d="M15671 9318 c0 -16 2 -18 6 -8 3 8 11 18 17 22 7 5 4 8 -6 8 -12 0
-18 -7 -17 -22z"/>
<path d="M15650 9254 c0 -8 5 -12 10 -9 6 3 10 10 10 16 0 5 -4 9 -10 9 -5 0
-10 -7 -10 -16z"/>
<path d="M11391 9215 c1 -40 1 -40 11 -12 7 21 7 32 -1 40 -8 8 -11 0 -10 -28z"/>
<path d="M15633 9201 c-7 -12 -13 -34 -13 -50 0 -17 -4 -33 -10 -36 -5 -3 -10
-16 -10 -27 0 -26 -17 -83 -36 -121 -8 -16 -14 -42 -14 -58 0 -16 -4 -29 -10
-29 -5 0 -10 -7 -10 -15 0 -9 6 -12 15 -9 8 4 15 18 15 32 0 14 6 33 13 41 8
9 19 43 26 76 7 33 17 68 22 77 5 10 9 27 9 39 0 11 5 29 11 40 5 11 9 29 7
40 -3 20 -3 20 -15 0z"/>
<path d="M11367 9148 c-7 -25 -3 -33 12 -23 13 8 15 45 2 45 -5 0 -11 -10 -14
-22z"/>
<path d="M11352 9088 c-7 -7 -12 -24 -12 -39 0 -15 -4 -31 -10 -34 -5 -3 -10
-15 -10 -27 0 -36 25 -3 39 52 14 54 12 67 -7 48z"/>
<path d="M11281 8834 c0 -11 3 -14 6 -6 3 7 2 16 -1 19 -3 4 -6 -2 -5 -13z"/>
<path d="M11260 8769 c0 -11 5 -17 10 -14 6 3 10 13 10 21 0 8 -4 14 -10 14
-5 0 -10 -9 -10 -21z"/>
<path d="M15495 8728 c-22 -72 -26 -90 -22 -95 8 -7 24 27 31 70 6 34 0 52 -9
25z"/>
<path d="M11243 8714 c-7 -7 -13 -23 -13 -36 0 -20 1 -21 16 -6 9 8 14 25 12
36 -2 17 -5 18 -15 6z"/>
<path d="M11222 8638 c-7 -7 -12 -24 -12 -39 0 -15 -4 -30 -9 -33 -5 -3 -11
-20 -14 -38 -3 -18 -8 -44 -12 -57 -6 -18 -5 -23 6 -19 8 3 14 17 15 31 1 14
5 32 11 39 11 16 37 117 31 123 -2 3 -10 -1 -16 -7z"/>
<path d="M15431 8527 c-7 -9 -11 -24 -9 -34 3 -16 5 -15 17 5 15 29 10 50 -8
29z"/>
<path d="M15405 8449 c-4 -6 -5 -12 -2 -15 2 -3 7 2 10 11 7 17 1 20 -8 4z"/>
<path d="M15380 8385 c-10 -12 -10 -15 4 -15 9 0 16 7 16 15 0 8 -2 15 -4 15
-2 0 -9 -7 -16 -15z"/>
<path d="M11136 8321 c-4 -7 -5 -15 -2 -18 9 -9 19 4 14 18 -4 11 -6 11 -12 0z"/>
<path d="M11112 8257 c-17 -20 -12 -40 6 -28 8 5 12 16 10 26 -3 17 -4 17 -16
2z"/>
<path d="M11098 8200 c-9 -21 -45 -140 -51 -167 -3 -13 -1 -25 3 -28 8 -5 40
88 40 117 0 8 5 19 11 25 6 6 9 23 7 39 -3 19 -6 24 -10 14z"/>
<path d="M10980 7795 c0 -15 4 -24 10 -20 6 3 10 12 10 20 0 8 -4 17 -10 20
-6 4 -10 -5 -10 -20z"/>
<path d="M10960 7718 l1 -33 13 25 c14 25 13 40 -5 40 -5 0 -9 -15 -9 -32z"/>
<path d="M10940 7638 c-1 -13 -7 -34 -15 -48 -8 -14 -14 -37 -15 -52 0 -15 -4
-30 -10 -33 -5 -3 -10 -13 -10 -22 0 -13 3 -13 15 -3 8 7 15 23 15 36 0 12 5
26 10 29 6 3 10 16 10 28 0 12 6 34 14 49 14 26 12 38 -6 38 -4 0 -8 -10 -8
-22z"/>
<path d="M10857 7333 c-4 -3 -7 -11 -7 -17 0 -6 5 -5 12 2 6 6 9 14 7 17 -3 3
-9 2 -12 -2z"/>
<path d="M10840 7265 c-11 -13 -10 -14 4 -9 9 3 16 10 16 15 0 13 -6 11 -20
-6z"/>
<path d="M10802 7130 c0 -14 2 -19 5 -12 2 6 2 18 0 25 -3 6 -5 1 -5 -13z"/>
<path d="M10782 7050 c0 -14 2 -19 5 -12 2 6 2 18 0 25 -3 6 -5 1 -5 -13z"/>
<path d="M14827 7020 c-3 -11 -1 -20 4 -20 5 0 9 9 9 20 0 11 -2 20 -4 20 -2
0 -6 -9 -9 -20z"/>
<path d="M14812 6970 c0 -14 2 -19 5 -12 2 6 2 18 0 25 -3 6 -5 1 -5 -13z"/>
<path d="M10691 6744 c0 -11 3 -14 6 -6 3 7 2 16 -1 19 -3 4 -6 -2 -5 -13z"/>
<path d="M10671 6664 c0 -11 3 -14 6 -6 3 7 2 16 -1 19 -3 4 -6 -2 -5 -13z"/>
<path d="M10640 6579 c0 -5 5 -7 10 -4 6 3 10 8 10 11 0 2 -4 4 -10 4 -5 0
-10 -5 -10 -11z"/>
<path d="M10371 5614 c0 -11 3 -14 6 -6 3 7 2 16 -1 19 -3 4 -6 -2 -5 -13z"/>
<path d="M10107 4723 c-4 -3 -7 -13 -7 -22 1 -13 3 -13 11 2 11 19 8 33 -4 20z"/>
<path d="M10096 4654 c-4 -9 -4 -19 -1 -22 2 -3 7 3 11 12 4 9 4 19 1 22 -2 3
-7 -3 -11 -12z"/>
</g>
</svg>
